<svg width="48" height="48" viewBox="0 0 48 48" fill="none" xmlns="http://www.w3.org/2000/svg">
  <!-- Fondo circular -->
  <circle cx="24" cy="24" r="22" fill="#6366f1" stroke="#4f46e5" stroke-width="2"/>
  
  <!-- Cabeza del león -->
  <circle cx="24" cy="20" r="8" fill="#f59e0b"/>
  
  <!-- Melena del león -->
  <circle cx="16" cy="16" r="3" fill="#d97706" opacity="0.8"/>
  <circle cx="32" cy="16" r="3" fill="#d97706" opacity="0.8"/>
  <circle cx="14" cy="22" r="2.5" fill="#d97706" opacity="0.8"/>
  <circle cx="34" cy="22" r="2.5" fill="#d97706" opacity="0.8"/>
  <circle cx="18" cy="12" r="2" fill="#d97706" opacity="0.8"/>
  <circle cx="30" cy="12" r="2" fill="#d97706" opacity="0.8"/>
  
  <!-- Ojos -->
  <circle cx="21" cy="18" r="1.5" fill="#1f2937"/>
  <circle cx="27" cy="18" r="1.5" fill="#1f2937"/>
  <circle cx="21" cy="17.5" r="0.5" fill="#ffffff"/>
  <circle cx="27" cy="17.5" r="0.5" fill="#ffffff"/>
  
  <!-- Nariz -->
  <path d="M24 20 L22 22 L26 22 Z" fill="#1f2937"/>
  
  <!-- Boca -->
  <path d="M24 22 Q21 24 18 23" stroke="#1f2937" stroke-width="1" fill="none" stroke-linecap="round"/>
  <path d="M24 22 Q27 24 30 23" stroke="#1f2937" stroke-width="1" fill="none" stroke-linecap="round"/>
  
  <!-- Libro/conocimiento -->
  <rect x="18" y="30" width="12" height="8" rx="1" fill="#ffffff" stroke="#e5e7eb" stroke-width="1"/>
  <line x1="20" y1="32" x2="28" y2="32" stroke="#6b7280" stroke-width="0.5"/>
  <line x1="20" y1="34" x2="26" y2="34" stroke="#6b7280" stroke-width="0.5"/>
  <line x1="20" y1="36" x2="28" y2="36" stroke="#6b7280" stroke-width="0.5"/>
  
  <!-- Bombilla de idea -->
  <circle cx="36" cy="12" r="4" fill="#fbbf24" opacity="0.9"/>
  <rect x="34" y="15" width="4" height="2" rx="0.5" fill="#f59e0b"/>
  <path d="M34 11 L36 9 L38 11" stroke="#ffffff" stroke-width="0.8" fill="none" stroke-linecap="round"/>
  
  <!-- Texto LEO -->
  <text x="24" y="44" text-anchor="middle" font-family="Arial, sans-serif" font-size="5" font-weight="bold" fill="#ffffff">LEO</text>
</svg>